# xmcd
#
# Track frame offsets: 
#        150
#        21047
#        57140
#        79445
#        110007
#        149332
#        190197
#        214660
#        252310
#        282592
#
# Disc length: 4125 seconds
#
# Revision: 3
# Processed by: cddbd v1.5.2PL0 Copyright (c) Steve Scherf et al.
# Submitted via: ExactAudioCopy v0.99pb5
#
DISCID=96101b0a
DTITLE=Thelonious Monk - Monk.
DYEAR=1964
DGENRE=Jazz
TTITLE0=Liza (All The Clouds'll Roll Away)
TTITLE1=April In Paris (Take 6)
TTITLE2=Children's Song (That Old Man)
TTITLE3=I Love You (Sweetheart Of All My Dreams)
TTITLE4=Just You, Just Me
TTITLE5=Pannonica (Re-take 2)
TTITLE6=Teo
TTITLE7=April In Paris (Take 1)
TTITLE8=Pannonica (Take 2)
TTITLE9=Medley: Just You, Just Me/Liza (All The Clouds'll Roll Away)
EXTD=YEAR: 1964
EXTT0=
EXTT1=
EXTT2=
EXTT3=
EXTT4=
EXTT5=
EXTT6=
EXTT7=
EXTT8=
EXTT9=
PLAYORDER=
